<?xml version="1.0" encoding="UTF-8"?>
<!-- Created with Inkscape (http://www.inkscape.org/) -->
<svg width="39.488mm" height="10.656mm" version="1.1" viewBox="0 0 39.488 10.656" xmlns="http://www.w3.org/2000/svg">
 <path d="m3.0758 10.503c-0.17945-0.0973-0.31587-0.27618-0.35328-0.46321-0.0541-0.27078-0.12373-0.31774-0.62506-0.42181-0.31027-0.0644-0.78896-0.26738-1.0638-0.45103-0.44582-0.29794-0.52941-0.4187-0.77608-1.1212-0.24566-0.69956-0.27366-0.92168-0.25144-1.9943 0.0287-1.3854 0.1949-1.8932 0.8611-2.6306 0.49791-0.55113 1.0118-0.88044 1.6742-1.0729 0.59786-0.17368 0.70694-0.43816 0.36171-0.87705-0.61958-0.78767 0.14957-1.8117 1.0219-1.3606 0.49556 0.25626 0.60171 0.87909 0.23031 1.3513-0.29623 0.3766-0.28218 0.81106 0.0262 0.81116 0.43755 1.6e-4 1.4848 0.58616 1.947 1.0894 0.72368 0.78808 0.88835 1.2766 0.91057 2.7012 0.0167 1.0694-0.0142 1.3143-0.25152 1.9944-0.24092 0.6904-0.32521 0.8118-0.77016 1.1092-0.27479 0.18365-0.75349 0.38662-1.0638 0.45103-0.50173 0.10416-0.57088 0.15089-0.62521 0.42256-0.0395 0.19753-0.17177 0.36269-0.37431 0.46743-0.38338 0.19825-0.5049 0.19757-0.87838-5e-3zm2.1921-1.9421c0.34964-0.17493 0.53406-0.34351 0.59939-0.54789 0.12008-0.37565 0.0682-0.42159-0.30656-0.27145-0.51224 0.20523-2.929 0.24461-3.714 0.0605-0.37491-0.0879-0.69604-0.14547-0.71362-0.12789-0.10167 0.10166 0.14834 0.61939 0.36887 0.76389 0.78816 0.51642 2.8452 0.58352 3.7659 0.12283zm0.16681-1.7207c0.27064-0.0958 0.54697-0.24035 0.61405-0.32118 0.21057-0.25373 0.14783-1.3541-0.10726-1.881-0.28319-0.58499-1.0076-1.2378-1.5559-1.4021-0.50563-0.15148-1.2047-0.15771-1.7175-0.0153-0.52851 0.1468-1.388 0.94434-1.6076 1.4918-0.20566 0.51268-0.23927 1.5883-0.0565 1.8086 0.11936 0.14382 0.82698 0.41014 1.367 0.51448 0.55182 0.10663 2.5754-0.0223 3.0637-0.1952zm-3.4836-0.23305c-0.63897-0.23358-0.83317-0.99162-0.37215-1.4526 0.4698-0.4698 1.2213-0.26545 1.4542 0.39543 0.11725 0.33271-0.14268 0.82937-0.51559 0.98518-0.19239 0.0804-0.36313 0.14243-0.37942 0.13787-0.0163-5e-3 -0.10046-0.0342-0.18706-0.0658zm2.5595-0.0773c-0.35005-0.15144-0.6055-0.65959-0.49261-0.97992 0.23291-0.66088 0.98442-0.86523 1.4542-0.39543 0.6796 0.6796-0.075 1.7589-0.9616 1.3754z" fill="#fff" stroke-width=".10496"/>
 <text x="9.7133007" y="6.9599199" fill="#ffffff" font-family="Mont" font-size="6.463px" stroke-width=".16158" style="line-height:1.25" xml:space="preserve"><tspan x="9.7133007" y="6.9599199" fill="#ffffff" font-family="Mont" stroke-width=".16158">Droptron</tspan></text>
</svg>
