<?xml version="1.0" encoding="UTF-8" standalone="no"?>
<!-- Created with Inkscape (http://www.inkscape.org/) -->

<svg
   width="36.552mm"
   height="8.2025mm"
   version="1.1"
   viewBox="0 0 36.552 8.2025"
   id="svg18"
   sodipodi:docname="logo.svg"
   inkscape:version="1.1 (c68e22c387, 2021-05-23)"
   xmlns:inkscape="http://www.inkscape.org/namespaces/inkscape"
   xmlns:sodipodi="http://sodipodi.sourceforge.net/DTD/sodipodi-0.dtd"
   xmlns="http://www.w3.org/2000/svg"
   xmlns:svg="http://www.w3.org/2000/svg">
  <defs
     id="defs22" />
  <sodipodi:namedview
     id="namedview20"
     pagecolor="#ffffff"
     bordercolor="#666666"
     borderopacity="1.0"
     inkscape:pageshadow="2"
     inkscape:pageopacity="0.0"
     inkscape:pagecheckerboard="0"
     inkscape:document-units="mm"
     showgrid="false"
     inkscape:zoom="2.1769928"
     inkscape:cx="57.878004"
     inkscape:cy="-34.680868"
     inkscape:window-width="1920"
     inkscape:window-height="1009"
     inkscape:window-x="-2"
     inkscape:window-y="-8"
     inkscape:window-maximized="1"
     inkscape:current-layer="svg18" />
  <path
     d="M 4.1071753,0.13229 C 3.3205525,0.13113032 2.5497516,0.36155122 1.8923497,0.80252406 1.8244347,0.84808209 1.6902185,0.94860132 1.6163928,1.0076767 L 1.9052612,1.2996408 C 2.4427555,0.88051959 3.0679316,0.62890401 3.760946,0.55654138 c 0.08783,-0.0092 0.178311,-0.0124022 0.34107,-0.0124022 0.2448397,0 0.3702533,0.009538 0.5813617,0.0449574 0.6445698,0.10814708 1.2066435,0.36662851 1.7140815,0.78858062 0.1128116,0.09381 0.3350906,0.3166229 0.4289106,0.4294135 0.4816944,0.5792714 0.7476502,1.2214864 0.8252515,1.9926049 0.011517,0.1143964 0.011517,0.4907165 0,0.6051208 C 7.5785946,5.1304536 7.3371944,5.7439881 6.9064582,6.298733 L 7.1953266,6.5912262 C 7.2555609,6.5153156 7.3579296,6.3779165 7.4020298,6.3121737 8.0596169,5.3318519 8.2439498,4.1086721 7.9069013,2.9647075 7.7768338,2.5232029 7.5625769,2.097917 7.2821486,1.7239596 7.068651,1.4392715 6.7653445,1.1354543 6.4806564,0.92196473 5.9767638,0.54409157 5.3901634,0.29258182 4.7696704,0.18817856 4.5491853,0.1510765 4.3274514,0.13269348 4.1071886,0.13236805 Z M 0.98645424,1.6427772 c -0.0106102,0.013484 -0.0154483,0.019045 -0.0263546,0.033073 -0.78104016,1.0047161 -1.02723185,2.3272722 -0.66301102,3.563628 0.30794466,1.0452762 1.06234158,1.9382073 2.04843118,2.4246376 0.4737305,0.2336877 0.975533,0.3664433 1.5172076,0.4015266 0.1321577,0.00857 0.4657931,0.00294 0.6092484,-0.010334 C 5.239099,7.9842874 5.9492053,7.7003214 6.559168,7.2207437 L 6.2697705,6.9277468 C 5.7852187,7.2995876 5.2275899,7.5357781 4.6197703,7.6248622 4.4189408,7.6542915 4.3277798,7.6605197 4.1019872,7.6605197 3.8843225,7.6605496 3.796265,7.6547307 3.6095244,7.6284817 3.011018,7.5443611 2.4543946,7.3170975 1.9781242,6.9618724 1.6502831,6.7173528 1.3327342,6.3809341 1.1228958,6.0560034 0.80156335,5.5584342 0.61852691,5.0374233 0.55653582,4.4437058 c -0.0174099,-0.1666484 -0.0174099,-0.515984 0,-0.6826429 0.0701693,-0.6720597 0.30839444,-1.2845094 0.70071368,-1.8008902 0.00877,-0.011541 0.010297,-0.013382 0.018603,-0.024288 z M 5.4361607,2.8773075 c -0.00392,0 -0.3982988,0.3909963 -0.8764213,0.8691982 -0.4781225,0.4782019 -0.8707063,0.8697009 -0.8727965,0.8697009 -0.00198,0 -0.2098172,-0.2061766 -0.461454,-0.4578557 L 2.7681624,3.7010244 2.4126198,4.056567 3.0477176,4.6916648 c 0.3494573,0.3494573 0.6373733,0.6356006 0.6392253,0.6356006 0.00193,0 0.4762969,-0.4726986 1.0541926,-1.0505678 L 5.7917033,3.2256006 5.6175567,3.0514541 C 5.5217655,2.955602 5.4400738,2.8773075 5.4361739,2.8773075 Z"
     fill="#13b510"
     stroke="#13b510"
     id="path2"
     style="stroke-width:0.26458" />
  <path
     d="m 12.3166,4.513 -1.2771,0.99334 0.64783,-0.32083 -0.21594,1.0797 h -1.2957 l 0.86377,-4.3189 h 1.2957 l -0.30849,1.5486 2.1101,-1.5486 h 1.5116 l -2.3322,1.7954 1.6844,2.5234 h -1.5116 z"
     id="path4"
     style="fill:#042c62;stroke-width:0.15424;fill-opacity:1" />
  <path
     d="m 19.091,5.044 h -1.8694 l -0.24679,1.2216 h -1.2957 l 0.74654,-3.7389 q 0.04936,-0.25913 0.24679,-0.41955 0.2036,-0.16042 0.46273,-0.16042 h 2.9923 q 0.17275,0 0.31466,0.07404 0.14808,0.06787 0.24062,0.19126 0.09872,0.11723 0.1419,0.27147 0.04319,0.15424 0.0062,0.32083 l -0.69102,3.4613 h -1.2957 z M 17.419,4.0322 h 1.8756 l 0.17892,-0.90696 q 0.01234,-0.06787 -0.03085,-0.11723 -0.04319,-0.05553 -0.11106,-0.05553 h -1.5733 q -0.1234,0 -0.14191,0.11723 z"
     id="path6"
     style="fill:#042c62;stroke-width:0.15424;fill-opacity:1" />
  <path
     d="m 21.9598,1.947 h 1.4376 l -0.66017,3.3132 h 2.6777 l -0.2036,1.0057 h -4.1152 z"
     id="path8"
     style="fill:#042c62;stroke-width:0.15424;fill-opacity:1" />
  <path
     d="m 27.2538,5.087 q -0.01234,0.06787 0.03085,0.1234 0.04319,0.04936 0.11106,0.04936 h 1.5733 q 0.04936,0 0.08638,-0.03085 0.04319,-0.03702 0.05553,-0.08638 l 0.64166,-3.196 h 1.2957 l -0.74654,3.7389 q -0.04936,0.25913 -0.25296,0.41955 -0.19743,0.16041 -0.45656,0.16041 h -2.9923 q -0.17275,0 -0.32083,-0.06787 Q 26.13719,6.12348 26.03847,6.00626 25.94592,5.88286 25.90273,5.72862 25.85954,5.5682 25.89039,5.40162 l 0.69102,-3.4551 h 1.2957 z"
     id="path10"
     style="fill:#042c62;stroke-width:0.15424;fill-opacity:1" />
  <path
     d="m 34.7068,4.038 1.4807,2.2273 H 34.608 L 33.79976,5.056 32.73236,6.2653 h -1.6535 l 2.0114,-2.2767 -1.3635,-2.0422 h 1.5856 l 0.67868,1.0242 0.90079,-1.0242 h 1.6597 z"
     id="path12"
     style="fill:#042c62;stroke-width:0.15424;fill-opacity:1" />
</svg>
