<?xml version="1.0" encoding="UTF-8"?>
<!-- Created with Inkscape (http://www.inkscape.org/) -->
<svg width="36.552mm" height="8.2025mm" version="1.1" viewBox="0 0 36.552 8.2025" xmlns="http://www.w3.org/2000/svg">
 <path d="m4.1072 0.13229c-0.78662-0.0011597-1.5574 0.22926-2.2148 0.67023-0.067915 0.045558-0.20213 0.14608-0.27596 0.20515l0.28887 0.29196c0.53749-0.41912 1.1627-0.67074 1.8557-0.7431 0.08783-0.0092 0.17831-0.012402 0.34107-0.012402 0.24484 0 0.37025 0.009538 0.58136 0.044957 0.64457 0.10815 1.2066 0.36663 1.7141 0.78858 0.11281 0.09381 0.33509 0.31662 0.42891 0.42941 0.48169 0.57927 0.74765 1.2215 0.82525 1.9926 0.011517 0.1144 0.011517 0.49072 0 0.60512-0.073027 0.72564-0.31443 1.3392-0.74516 1.8939l0.28887 0.29249c0.060234-0.075911 0.1626-0.21331 0.2067-0.27905 0.65759-0.98032 0.84192-2.2035 0.50487-3.3475-0.13007-0.4415-0.34432-0.86679-0.62475-1.2407-0.2135-0.28469-0.5168-0.58851-0.80149-0.80199-0.50389-0.37787-1.0905-0.62938-1.711-0.73379-0.22049-0.037102-0.44222-0.055485-0.66248-0.055811zm-3.1207 1.5105c-0.01061 0.013484-0.015448 0.019045-0.026355 0.033073-0.78104 1.0047-1.0272 2.3273-0.66301 3.5636 0.30794 1.0453 1.0623 1.9382 2.0484 2.4246 0.47373 0.23369 0.97553 0.36644 1.5172 0.40153 0.13216 0.00857 0.46579 0.00294 0.60925-0.010334 0.76712-0.071021 1.4772-0.35499 2.0872-0.83456l-0.2894-0.293c-0.48455 0.37184-1.0422 0.60803-1.65 0.69712-0.20083 0.029429-0.29199 0.035658-0.51778 0.035658-0.21766 2.99e-5 -0.30572-0.005789-0.49246-0.032038-0.59851-0.084121-1.1551-0.31138-1.6314-0.66661-0.32784-0.24452-0.64539-0.58094-0.85523-0.90587-0.32133-0.49757-0.50437-1.0186-0.56636-1.6123-0.01741-0.16665-0.01741-0.51598 0-0.68264 0.070169-0.67206 0.30839-1.2845 0.70071-1.8009 0.00877-0.011541 0.010297-0.013382 0.018603-0.024288zm4.4497 1.2345c-0.00392 0-0.3983 0.391-0.87642 0.8692s-0.87071 0.8697-0.8728 0.8697c-0.00198 0-0.20982-0.20618-0.46145-0.45786l-0.45733-0.45733-0.35554 0.35554 0.6351 0.6351c0.34946 0.34946 0.63737 0.6356 0.63923 0.6356 0.00193 0 0.4763-0.4727 1.0542-1.0506l1.0506-1.0511-0.17415-0.17415c-0.095791-0.095852-0.17748-0.17415-0.18138-0.17415z" fill="#13b510" stroke="#13b510" stroke-width=".26458"/>
 <g fill="#fff" stroke-width=".15424">
  <path d="m12.317 4.513-1.2771 0.99334 0.64783-0.32083-0.21594 1.0797h-1.2957l0.86377-4.3189h1.2957l-0.30849 1.5486 2.1101-1.5486h1.5116l-2.3322 1.7954 1.6844 2.5234h-1.5116z"/>
  <path d="m19.091 5.044h-1.8694l-0.24679 1.2216h-1.2957l0.74654-3.7389q0.04936-0.25913 0.24679-0.41955 0.2036-0.16042 0.46273-0.16042h2.9923q0.17275 0 0.31466 0.07404 0.14808 0.06787 0.24062 0.19126 0.09872 0.11723 0.1419 0.27147 0.04319 0.15424 0.0062 0.32083l-0.69102 3.4613h-1.2957zm-1.672-1.0118h1.8756l0.17892-0.90696q0.01234-0.06787-0.03085-0.11723-0.04319-0.05553-0.11106-0.05553h-1.5733q-0.1234 0-0.14191 0.11723z"/>
  <path d="m21.96 1.947h1.4376l-0.66017 3.3132h2.6777l-0.2036 1.0057h-4.1152z"/>
  <path d="m27.254 5.087q-0.01234 0.06787 0.03085 0.1234 0.04319 0.04936 0.11106 0.04936h1.5733q0.04936 0 0.08638-0.03085 0.04319-0.03702 0.05553-0.08638l0.64166-3.196h1.2957l-0.74654 3.7389q-0.04936 0.25913-0.25296 0.41955-0.19743 0.16041-0.45656 0.16041h-2.9923q-0.17275 0-0.32083-0.06787-0.1419-0.07404-0.24062-0.19126-0.09255-0.1234-0.13574-0.27764-0.04319-0.16042-0.01234-0.327l0.69102-3.4551h1.2957z"/>
  <path d="m34.707 4.038 1.4807 2.2273h-1.5795l-0.80824-1.2093-1.0674 1.2093h-1.6535l2.0114-2.2767-1.3635-2.0422h1.5856l0.67868 1.0242 0.90079-1.0242h1.6597z"/>
 </g>
</svg>
