<?xml version="1.0" encoding="UTF-8" standalone="no"?>
<!-- Created with Inkscape (http://www.inkscape.org/) -->

<svg
   width="36.551521mm"
   height="8.2025204mm"
   viewBox="0 0 36.551521 8.2025204"
   version="1.1"
   id="svg5"
   sodipodi:docname="logo.svg"
   inkscape:version="1.1 (c68e22c387, 2021-05-23)"
   xmlns:inkscape="http://www.inkscape.org/namespaces/inkscape"
   xmlns:sodipodi="http://sodipodi.sourceforge.net/DTD/sodipodi-0.dtd"
   xmlns="http://www.w3.org/2000/svg"
   xmlns:svg="http://www.w3.org/2000/svg">
  <sodipodi:namedview
     id="namedview7"
     pagecolor="#ffffff"
     bordercolor="#666666"
     borderopacity="1.0"
     inkscape:pageshadow="2"
     inkscape:pageopacity="0.0"
     inkscape:pagecheckerboard="0"
     inkscape:document-units="mm"
     showgrid="false"
     inkscape:zoom="6.0578002"
     inkscape:cx="89.801575"
     inkscape:cy="15.599722"
     inkscape:window-width="1920"
     inkscape:window-height="1009"
     inkscape:window-x="-2"
     inkscape:window-y="-8"
     inkscape:window-maximized="1"
     inkscape:current-layer="layer1"
     showguides="true"
     inkscape:guide-bbox="true">
    <sodipodi:guide
       position="2.5820501,6.2177573"
       orientation="-0.70710678,-0.70710678"
       id="guide11208" />
    <sodipodi:guide
       position="1.9206352,5.6139563"
       orientation="-0.70710678,-0.70710678"
       id="guide11210" />
  </sodipodi:namedview>
  <defs
     id="defs2" />
  <g
     inkscape:label="Camada 1"
     inkscape:groupmode="layer"
     id="layer1"
     transform="translate(9.4588079,-76.128056)">
    <path
       id="path1092"
       style="fill:#13b510;fill-opacity:1;stroke:#13b510;stroke-width:0.999999;stroke-miterlimit:4;stroke-dasharray:none;stroke-opacity:1"
       d="M 15.523438,0.5 C 12.550373,0.49561692 9.6369995,1.3665053 7.1523438,3.0332031 6.8956507,3.2053939 6.3883766,3.5853086 6.109375,3.8085938 L 7.2011719,4.9121094 C 9.2326976,3.3279633 11.595526,2.3769999 14.214844,2.1035156 c 0.331964,-0.034772 0.673944,-0.046875 1.289062,-0.046875 0.925394,0 1.399385,0.036051 2.197266,0.1699219 2.436199,0.4087483 4.560637,1.3856859 6.478516,2.9804687 0.426383,0.3545613 1.266532,1.1966557 1.621093,1.6230469 1.820602,2.1894388 2.825819,4.6166599 3.119141,7.5312499 0.04353,0.432371 0.04353,1.854739 0,2.28711 -0.276008,2.742555 -1.18838,5.061542 -2.816406,7.158203 l 1.091796,1.105468 c 0.227655,-0.286914 0.614569,-0.806216 0.78125,-1.054687 2.485427,-3.705203 3.182116,-8.328304 1.908204,-12.652344 C 29.393166,9.5364168 28.583333,7.928968 27.523438,6.515625 26.71651,5.4396237 25.570154,4.2912966 24.494141,3.484375 22.589662,2.0561558 20.372496,1.105558 18.027344,0.7109375 17.194001,0.57071124 16.355895,0.50122726 15.523438,0.5 Z M 3.7285156,6.2089844 c -0.040102,0.050963 -0.058388,0.071983 -0.099609,0.125 -2.9520335,3.7974046 -3.88248044,8.7960676 -2.5058593,13.4687496 1.1639051,3.950676 4.0152301,7.325621 7.7421875,9.164063 1.7905242,0.883241 3.6870852,1.384992 5.7343742,1.517578 0.499499,0.03239 1.76048,0.01113 2.302735,-0.03906 2.899377,-0.268432 5.583287,-1.341653 7.888672,-3.154296 l -1.09375,-1.107422 c -1.831373,1.405395 -3.939035,2.298055 -6.236328,2.634765 -0.759048,0.111232 -1.103613,0.134766 -1.957032,0.134766 -0.822683,1.13e-4 -1.155483,-0.02188 -1.861328,-0.121094 C 11.380504,28.514094 9.276654,27.65509 7.4765625,26.3125 6.2374588,25.388322 5.0372579,24.116799 4.2441406,22.888672 3.0296405,21.008039 2.3378123,19.038873 2.1035156,16.794922 c -0.065802,-0.629855 -0.065802,-1.950224 0,-2.580078 0.265211,-2.540058 1.165631,-4.8549117 2.6484375,-6.8066409 0.033142,-0.043619 0.03892,-0.050578 0.070312,-0.091797 z M 20.546875,10.875 c -0.01483,0 -1.505359,1.477794 -3.3125,3.285156 -1.807141,1.807367 -3.290853,3.28711 -3.298828,3.28711 -0.0075,0 -0.793015,-0.779257 -1.744141,-1.730469 l -1.728515,-1.728516 -0.6718754,0.671875 -0.671875,0.671875 2.4003904,2.400391 c 1.320775,1.320831 2.409024,2.402344 2.416016,2.402344 0.0073,0 1.800196,-1.786564 3.984375,-3.970704 l 3.970703,-3.972656 -0.658203,-0.658203 C 20.870372,11.170924 20.561615,10.875 20.546875,10.875 Z"
       transform="matrix(0.26458333,0,0,0.26458333,-9.4586696,76.12806)" />
    <text
       xml:space="preserve"
       style="font-style:normal;font-weight:normal;font-size:6.16979px;line-height:1.25;font-family:sans-serif;fill:#ffffff;fill-opacity:1;stroke:none;stroke-width:0.154245"
       x="0.59351993"
       y="82.393562"
       id="text4442"><tspan
         sodipodi:role="line"
         id="tspan4440"
         style="font-style:normal;font-variant:normal;font-weight:normal;font-stretch:normal;font-family:'Race Sport';-inkscape-font-specification:'Race Sport';fill:#ffffff;stroke-width:0.154245"
         x="0.59351993"
         y="82.393562">Kalux</tspan></text>
  </g>
</svg>
