<?xml version="1.0" encoding="UTF-8"?>
<!-- Created with Inkscape (http://www.inkscape.org/) -->
<svg width="45.631mm" height="8.2121mm" version="1.1" viewBox="0 0 45.631 8.2121" xmlns="http://www.w3.org/2000/svg">
 <g transform="translate(9.4587 -76.128)">
  <path d="m-5.5958 84.194c-0.54168-0.03508-1.0434-0.16787-1.5171-0.40156-0.98609-0.48642-1.7405-1.3794-2.0484-2.4247-0.36423-1.2363-0.1182-2.5591 0.66286-3.5638 0.035571-0.04575 0.074178-0.09428 0.085795-0.10783l0.021109-0.02464 0.14439 0.14388c0.14236 0.14185 0.14422 0.1441 0.13245 0.15927-0.00657 0.0084-0.045492 0.05955-0.086492 0.11351-0.39233 0.5164-0.63069 1.1289-0.70086 1.801-0.01741 0.16665-0.01741 0.51624 0 0.68289 0.061991 0.59371 0.24495 1.1146 0.56629 1.6122 0.20985 0.32494 0.52754 0.66142 0.85539 0.90594 0.47627 0.35523 1.0327 0.58268 1.6312 0.6668 0.18675 0.02625 0.27514 0.03198 0.49281 0.03195 0.2258 0 0.31662-0.0063 0.51745-0.03573 0.61848-0.09065 1.1856-0.33302 1.6761-0.71624l0.076929-0.06012 0.14256 0.1422c0.07841 0.07821 0.14256 0.14444 0.14256 0.14716 0 0.0027-0.04135 0.0376-0.091885 0.0775-0.61146 0.48279-1.3241 0.76863-2.0941 0.83991-0.14347 0.01328-0.47681 0.019-0.60897 0.01043zm3.1262-1.5445-0.14397-0.14438 0.021427-0.02669c0.45615-0.56819 0.71006-1.1971 0.78535-1.9451 0.011518-0.1144 0.011518-0.49105 0-0.60545-0.077608-0.77115-0.34353-1.4132-0.82524-1.9925-0.093811-0.11282-0.3163-0.3353-0.42911-0.42911-0.50744-0.42195-1.0693-0.68052-1.7139-0.78866-0.21111-0.03542-0.33647-0.04516-0.58132-0.04516-0.16275 0-0.25361 0.0033-0.34144 0.0125-0.71324 0.07447-1.3551 0.33707-1.9029 0.77858l-0.030142 0.02429-0.28876-0.28794 0.030266-0.02676c0.047804-0.04226 0.24222-0.18811 0.32289-0.24222 0.84147-0.56446 1.8696-0.78396 2.8775-0.61435 0.62049 0.10441 1.2072 0.35609 1.7111 0.73398 0.2847 0.2135 0.58807 0.51687 0.80157 0.80157 0.28043 0.37395 0.49468 0.79953 0.62474 1.241 0.33706 1.1441 0.15248 2.3673-0.50512 3.3476-0.054116 0.08067-0.19996 0.27508-0.24222 0.32289l-0.026757 0.03027zm-3.9411-1.8293-0.63537-0.6354 0.35563-0.35543 0.45755 0.45759c0.25165 0.25168 0.45917 0.45759 0.46116 0.45759 0.00211 0 0.39481-0.39125 0.87295-0.86945 0.47814-0.4782 0.87256-0.86945 0.87648-0.86945 0.0039 0 0.085507 0.07842 0.1813 0.17427l0.17417 0.17427-1.0507 1.0507c-0.5779 0.57789-1.0523 1.0507-1.0542 1.0507-0.00185 0-0.28944-0.28593-0.6389-0.6354z" fill="#13b510" stroke="#13b510" stroke-width=".26458"/>
  <text x="0.9295094" y="83.106087" fill="#ffffff" font-family="sans-serif" font-size="8.2056px" stroke-width=".20514" style="line-height:1.25" xml:space="preserve"><tspan x="0.9295094" y="83.106087" fill="#ffffff" font-family="'Race Sport'" stroke-width=".20514">Kalux</tspan></text>
 </g>
</svg>
