<?xml version="1.0" encoding="UTF-8"?>
<!-- Created with Inkscape (http://www.inkscape.org/) -->
<svg width="36.552mm" height="8.2025mm" version="1.1" viewBox="0 0 36.552 8.2025" xmlns="http://www.w3.org/2000/svg">
 <g transform="translate(9.4588 -76.128)">
  <path transform="matrix(.26458 0 0 .26458 -9.4587 76.128)" d="m15.523 0.5c-2.9731-0.0043831-5.8864 0.86651-8.3711 2.5332-0.25669 0.17219-0.76397 0.55211-1.043 0.77539l1.0918 1.1035c2.0315-1.5841 4.3944-2.5351 7.0137-2.8086 0.33196-0.034772 0.67394-0.046875 1.2891-0.046875 0.92539 0 1.3994 0.036051 2.1973 0.16992 2.4362 0.40875 4.5606 1.3857 6.4785 2.9805 0.42638 0.35456 1.2665 1.1967 1.6211 1.623 1.8206 2.1894 2.8258 4.6167 3.1191 7.5312 0.04353 0.43237 0.04353 1.8547 0 2.2871-0.27601 2.7426-1.1884 5.0615-2.8164 7.1582l1.0918 1.1055c0.22766-0.28691 0.61457-0.80622 0.78125-1.0547 2.4854-3.7052 3.1821-8.3283 1.9082-12.652-0.4916-1.6687-1.3014-3.2761-2.3613-4.6895-0.80693-1.076-1.9533-2.2243-3.0293-3.0312-1.9045-1.4282-4.1216-2.3788-6.4668-2.7734-0.83334-0.14023-1.6714-0.20971-2.5039-0.21094zm-11.795 5.709c-0.040102 0.050963-0.058388 0.071983-0.099609 0.125-2.952 3.7974-3.8825 8.7961-2.5059 13.469 1.1639 3.9507 4.0152 7.3256 7.7422 9.1641 1.7905 0.88324 3.6871 1.385 5.7344 1.5176 0.4995 0.03239 1.7605 0.01113 2.3027-0.03906 2.8994-0.26843 5.5833-1.3417 7.8887-3.1543l-1.0938-1.1074c-1.8314 1.4054-3.939 2.2981-6.2363 2.6348-0.75905 0.11123-1.1036 0.13477-1.957 0.13477-0.82268 1.13e-4 -1.1555-0.02188-1.8613-0.12109-2.2621-0.31794-4.3659-1.1769-6.166-2.5195-1.2391-0.92418-2.4393-2.1957-3.2324-3.4238-1.2145-1.8806-1.9063-3.8498-2.1406-6.0938-0.065802-0.62986-0.065802-1.9502 0-2.5801 0.26521-2.5401 1.1656-4.8549 2.6484-6.8066 0.033142-0.043619 0.03892-0.050578 0.070312-0.091797zm16.818 4.666c-0.01483 0-1.5054 1.4778-3.3125 3.2852-1.8071 1.8074-3.2909 3.2871-3.2988 3.2871-0.0075 0-0.79302-0.77926-1.7441-1.7305l-1.7285-1.7285-1.3438 1.3438 2.4004 2.4004c1.3208 1.3208 2.409 2.4023 2.416 2.4023 0.0073 0 1.8002-1.7866 3.9844-3.9707l3.9707-3.9727-0.6582-0.6582c-0.36205-0.36228-0.67081-0.6582-0.68555-0.6582z" fill="#13b510" stroke="#13b510"/>
  <g fill="#fff" stroke-width=".15424" aria-label="Kalux">
   <path d="m2.8578 80.641-1.2771 0.99334 0.64783-0.32083-0.21594 1.0797h-1.2957l0.86377-4.3189h1.2957l-0.30849 1.5486 2.1101-1.5486h1.5116l-2.3322 1.7954 1.6844 2.5234h-1.5116z"/>
   <path d="m9.6322 81.172h-1.8694l-0.24679 1.2216h-1.2957l0.74654-3.7389q0.049358-0.25913 0.24679-0.41955 0.2036-0.16042 0.46273-0.16042h2.9923q0.17275 0 0.31466 0.07404 0.14808 0.06787 0.24062 0.19126 0.09872 0.11723 0.1419 0.27147 0.04319 0.15424 0.0062 0.32083l-0.69102 3.4613h-1.2957zm-1.672-1.0118h1.8756l0.17892-0.90696q0.01234-0.06787-0.030849-0.11723-0.043189-0.05553-0.11106-0.05553h-1.5733q-0.1234 0-0.14191 0.11723z"/>
   <path d="m12.501 78.075h1.4376l-0.66017 3.3132h2.6777l-0.2036 1.0057h-4.1152z"/>
   <path d="m17.795 81.215q-0.01234 0.06787 0.03085 0.1234 0.04319 0.04936 0.11106 0.04936h1.5733q0.04936 0 0.08638-0.03085 0.04319-0.03702 0.05553-0.08638l0.64166-3.196h1.2957l-0.74654 3.7389q-0.04936 0.25913-0.25296 0.41955-0.19743 0.16041-0.45656 0.16041h-2.9923q-0.17275 0-0.32083-0.06787-0.1419-0.07404-0.24062-0.19126-0.09255-0.1234-0.13574-0.27764-0.04319-0.16042-0.01234-0.327l0.69102-3.4551h1.2957z"/>
   <path d="m25.248 80.166 1.4807 2.2273h-1.5795l-0.80824-1.2093-1.0674 1.2093h-1.6535l2.0114-2.2767-1.3635-2.0422h1.5856l0.67868 1.0242 0.90079-1.0242h1.6597z"/>
  </g>
 </g>
</svg>
